<?xml version="1.0" encoding="UTF-8"?>
<svg width="59.399pc" height="34.236pc" enable-background="new 0 0 1000 600" version="1.1" viewBox="0 0 950.38 547.78" xml:space="preserve" xmlns="http://www.w3.org/2000/svg" xmlns:cc="http://creativecommons.org/ns#" xmlns:dc="http://purl.org/dc/elements/1.1/" xmlns:rdf="http://www.w3.org/1999/02/22-rdf-syntax-ns#"><metadata><rdf:RDF><cc:Work rdf:about=""><dc:format>image/svg+xml</dc:format><dc:type rdf:resource="http://purl.org/dc/dcmitype/StillImage"/><dc:title/><dc:creator><cc:Agent><dc:title>Isabel Vitting</dc:title></cc:Agent></dc:creator></cc:Work></rdf:RDF></metadata>  



















<path d="m83.555 100.54c58.028-106.95 235.68-48.071 355.34-54.458 139.72-7.4577 374.7-20.059 419.33 19.06 15.963 13.991 65.627 308.65 5.4458 424.77-61.588 118.84-14.682-333.21-141.59-375.77-223.94-75.078-407.08 516.1-599.04 378.49-95.991-68.812-5.4308-254.14 83.049-344.45 82.24-83.936 215.37-110.39 276.37-31.313 91.496 118.59-263.67 238.4-187.88 367.59 72.615 123.79 293.3-101.67 438.39-39.482 134.08 57.472 12.445-361.74-133.43-363.51-120.25-1.4628 7.2915 325.23-111.64 343.08-110.81 16.642-82.455-291.26-193.33-275.01-127.79 18.725 3.1717 397.28-122.53 367.59-114.51-27.038-163.55-278.27-88.495-416.61z" fill="none" stroke="#000" stroke-width=".89004px"/><g transform="matrix(.82358 0 0 .82358 121.56 15.903)"><path d="m151.75 32.159c-0.22636-5.7459-4.9239-10.17-4.8808-15.914 0.25452-5.2892-7.4493-7.3684-8.1902-1.368-3.0234-3.1796-0.40266-10.257-2.5596-14.706-0.67865 2.4219 1.1425 8.3084 0.66558 11.978-1.7229 5.9825-2.8217-5.732-3.8556-7.9674-0.39871-1.7955-3.026-6.4319-1.2578-1.8163 0.68514 4.2154 6.1918 12.433-0.8012 12.923-3.1277 2.9751-4.4647 4.9584-7.9016 0.81322-3.75-3.1791-10.006-3.3742-13.541 0.2064-4.1314-1.853-10.525 1.5808-12.129-3.6625-5.3348-3.4876-11.515 0.90972-15.34 4.6807-3.9355 2.9868-6.0915 7.948-11.65 7.922-5.6597 1.5402-11.597 2.2019-16.996 4.6923-3.9026 2.52-10.832 2.5731-12.496 7.373 4.098 1.8956 9.7837 0.0263 14.473 0.71851 6.8878 0.04758 13.848 0.199 20.648 1.3126 0.8948 4.8314 6.4821 7.0435 10.956 9.127 3.3958 2.0245 10.724 5.7141 12.229-0.15482 0.31797-3.9384 7.6186-1.433 10.633-3.1067 3.128 2.2146 8.5514 3.7527 12.331 1.0068 3.1741-2.5566 6.4505-5.1594 9.2363-0.65938 2.9046 2.6868 8.3789-0.45336 7.3079 5.3818 0.26008 2.2861 1.5943 11.389 1.2115 4.3602 0.0814-2.1137-2.7842-11.332 0.66848-8.0136 0.97812 2.395 1.475 7.6545 2.9192 8.34 0.32037-2.6567-5.1569-10.548-0.88731-10.095 0.70616 7.7247 9.6826 1.6554 7.3894-3.7689-0.0625-3.2367 1.9159-6.2866 1.8179-9.603zm-0.67641 0.48926c-2.0623 5.0806-0.3084 11.459-3.8197 15.723-4.6724 3.3969-4.9476-8.6611-1.9603-1.9547 3.9381-0.35354 0.6531-6.6694-2.2319-2.4097-2.3453 3.1289-5.6009-3.6885-3.2255 1.2902-1.9014 2.1839-2.8925-4.1975-2.2382 0.11208-2.1752 4.2209-11.638-4.0478-9.3571-5.3517 4.6909 2.8717 9.6383-1.3719 8.5308-6.0743 3.7712-2.4765-1.9182-5.6202-1.6305-9.1358-1.2776-3.5706-6.0127-5.5847-8.8847-3.3969 1.1524-5.3191 8.7839-7.3262 9.2179-5.2524-0.16096-4.5144 2.2072 2.7442 1.9673-0.99224 2.5527 0.87904 8.5107 5.8784 5.5278-0.41078-2.0343-2.0092-4.2454 3.5044-2.939-1.3615 4.0418-5.6252 7.1485 3.557 6.9858 7.1926 1.6067 3.9038 4.0496 7.6582 4.0574 12.022zm-4.5674 12.001c-1.7178 4.3426-1.7012-4.7813 0 0zm-1.7579-6.7674c-1.7031-5.9158-9.6415 3.2528-2.6932 2.2989 1.0041-0.61979 2.5782-0.85109 2.6932-2.2989zm-0.61483-12.421c-0.55452-4.5698-8.961-4.5634-4.9507 0.45046 1.3862 0.89543 4.52 2.0458 4.9507-0.45046zm-1.0006-7.9012c-5.1664-1.7212 0.28238-4.8521 0 0zm-6.9963 18.152c0.73411 6.4965-10.812 5.9028-9.9608-0.27088-0.69045-4.2763-2.553-10.242 0.89984-13.597 4.9222-3.5059 11.867 6.2716 6.7851 9.3972-3.8009-0.03965-1.4247-4.5067-0.61221-5.3608-3.8979 1.7434-0.61252 6.4238-1.464 9.4665 5.1291 3.5679-2.6203-1.7423 1.2526-3.5478 1.8853 0.5636 3.1794 1.8645 3.0995 3.9129zm-9.4694-16.141c-0.2122 4.8542-5.1974 3.5241-7.4657 2.8156 5.1384-0.58325-3.9298-0.73909-4.359 2.2135-2.9045 5.3017-13.09 3.2729-9.3655-3.2265 3.0654-4.1466 7.5848-8.5266 13.223-6.8654 3.0262 0.98804 5.4919 3.1509 7.967 5.0628zm0.92455 22.156c-3.984 2.5069-7.9235 6.7776-13.16 5.1119-4.2014-1.6498-11.033-6.5912-8.3512-11.669 5.2261-5.3835 9.4945 4.2164 14.669 4.3636 3.287-0.94452-4.0915-0.49728 0.54061-0.91574 3.9914-0.79828 5.0196-1.0749 6.3014 3.109zm-1.6615-4.1842c-4.5233 1.0288-9.1835 1.097-12.294-2.9613-3.5784-4.2273-11.301 0.197-8.4376 5.2325-5.958 0.34401-12.506 2.7146-18.018-0.5478-3.233-3.4945-5.3561-10.485-1.182-13.819 4.7185-2.557 9.6007-4.5835 15.106-3.5171 4.7742-1.2905 2.489 9.0328 9.2469 6.344 4.5689-2.721 8.7068-7.2577 14.528-4.3174-0.88224 4.5679 0.0253 9.1446 1.0507 13.586zm-17.006-20.778c-2.6125 4.8541-6.937 5.3551-11.988 4.5376-5.2524 1.2242 2.0342-3.6225 2.3366-5.2699 3.2222 0.01 6.4992 0.07517 9.6511 0.73229zm0.61338 27.855c-4.5188 0.30898-10.246 3.2664-13.385-1.3464-7.0696-2.915 3.7883-1.4739 6.2629-2.5715 3.6634-1.7015 4.8819 1.9541 7.1224 3.9178zm-11.402-29.423c-1.0395 5.736-7.5385 7.1576-11.942 9.5826-2.7278 2.7604-12.595 3.3427-8.7574-2.4708 4.5796-4.0088 8.7488-9.4874 15.153-10.417 2.2352-0.14717 4.92 1.0162 5.5469 3.3048zm0.63845 32.403c-0.93168 5.7588-7.9928 2.7016-11.191 0.70524-3.4442-2.159-13.906-4.8985-8.4637-9.8255 6.4041 0.51439 12.927 2.6052 18.203 6.3313 0.89275 0.67347 1.3064 1.7153 1.4516 2.7889zm-2.4614-30.533c-1.2859-1.5082-1.8296 1.8015 1e-5 0zm-0.26706-2.6259c-2.2595-1.3541-1.8358 2.4188 0 0zm1.1712 34.052c-2.298-2.9549-2.3381 1.7399 0 0zm-0.27465-2.9185c-2.2714-1.6149-1.9136 1.8229 0 0zm-2.9372-32.506c-1.6012-1.5348-1.7185 2.6628 0 0zm1.5216 36.926c-1.7535-2.6466-0.80918 2.1432-2e-5 3e-5zm-1.9326-33.808c-1.2734-3.3701-5.5331-1.093-1.9028 0.86013 0.82426 2.3895 2.2543 1.0439 1.9028-0.86013zm0.6965 30.821c-0.35293-7.2168-4.779 4.4087-0.43156 1.0515l0.33968-0.53297 0.09188-0.51843zm-8.009-7.8016c-3.0673-1.8406-7.764-0.7112-9.5521-0.94223-1.7973-2.7331-2.5488-12.335 2.3046-10.714 2.6442 0.44016 6.7916-3.1835 4.2296 1.5827-0.43168 3.5215 0.69842 7.3837 3.0179 10.073zm-9.69-12.715c-2.7122 3.5182-1.7374 8.86-0.62667 12.248-7.6038-1.1782-15.35-1.2311-23.036-1.3737-3.4558-0.7228-9.0556 1.4274-11.395-0.88263 4.5027-3.8662 10.639-5.2865 16.063-7.5197 5.8521-2.0176 12.149-2.4365 18.025-4.451 0.19865 0.74622 0.41236 1.4202 0.96951 1.9792z" fill="#1a1a1a" stroke-width=".085823"/><g transform="translate(-133.18,-301.57)"><path d="m275.71 328.01c-1.4121-1.3111 1.1267-3.4646 1.3074-1.1206 0.015 0.78921-0.64632 1.5981-1.3074 1.1206z" fill="#b3b3b3" stroke-width=".98448"/><path d="m276.56 340.41c-1.18-1.3221 0.77953-3.6309 1.1162-1.2996 0.066 0.85235-0.47471 1.8334-1.1162 1.2996z" fill="#b3b3b3" stroke-width=".95415"/><path d="m273.05 327.4c-2.3718-0.0675-1.6385-4.9845 0.63699-3.546 1.029 0.89622 0.93493 3.3114-0.63699 3.546z" fill="#666"/><path d="m273.94 341.77c-2.4993-0.0185-1.3969-4.8101 0.76646-3.1069 0.93781 0.87215 0.67533 2.9646-0.76646 3.1069z" fill="#666"/></g><g transform="translate(-133.18,-301.57)" fill="#a05a2c"><g stroke-width=".13128"><path d="m260 322.16c1.3087-3.4829 7.5293-7.9764 8.7055-3.7439-0.52273-3.6349 1.4409-1.0677 1.8398-0.43087 0.25035-3.6477 8.0555 5.7895 6.1649-0.70927-1.2548-3.6977-5.699 2.4891-3.1002-2.833 6.646-4.1129 5.2732 7.7267 8.094 11.224 2.2808 4.1993 3.3555 9.2874 1.3967 13.8-1.1966 3.449 0.44392 12.577-5.7724 10.243-2.236-2.4427 0.0972-6.1573 1.1684-1.6324 3.722-0.19825 1.1643-6.9558-1.8504-2.8157-2.2119 3.907-6.3493-3.7962-3.7373 1.5229-2.1541 1.9873-2.6201-4.8717-2.1276 0.95415-4.136 1.5146-9.6206-3.3651-9.7531-6.1698 4.5362 2.7762 10.238-0.70594 8.9761-5.9868 3.4096-2.7138-1.8767-7.2802-2.5948-10.83-1.1711-3.7717-7.5991-1.9442-7.4098-2.5922zm11.71 4.7569c4.3114 4.6371 8.0067-1.81 2.0452-3.445-2.1725-1.1631-3.1565 2.0516-2.0452 3.445zm0.69764 13.863c2.5912 4.6746 9.1121-4.5365 2.1849-3.0557-1.5128 0.13585-2.8517 1.502-2.1849 3.0557z"/><path d="m238.04 324.33c2.7483-4.7911 7.8326-9.8944 13.918-8.1378 3.6771 1.3806 10.353 5.1532 5.7784 8.5106-2.3398-0.62638-7.1065-0.2106-3.4886-1.1116-5.689-1.5797-9.4049 9.266-15.163 4.5539-0.86419-1.0404-1.5817-2.4504-1.0442-3.8152z"/><path d="m238.7 338.02c2.9985-6.4216 9.3235 0.0196 12.807 2.5111 3.1775 2.0624 7.6311-4.1032 8.8205 2.148-1.1292 2.5948-6.5629 5.8649-10.226 5.9097-4.9916 0.13657-11.828-5.5502-11.401-10.569z"/><path d="m229.35 342.97c4.8644-0.26173 10.536-2.4842 13.174 3.1277-3.3065 0.12609-8.0424 2.4053-10.923 0.58772-1.203-2.0762-8.0188-3.9787-2.2509-3.7154z"/></g><path d="m252.74 340.36c3.2328-0.65651 3.0046 0.32496 0 0z" stroke-width=".03282"/><g stroke-width=".13128"><path d="m210.85 341.42c4.6614-3.2333 11.679 1.3959 16.645 3.0916 6.8126 1.4366 4.0313 11.013-2.3975 7.2801-4.8027-2.8389-11.941-3.9746-14.518-9.1827l0.27105-1.189zm14.245 8.7982c4.5875 1.5138 0.79898-8.0296 0.62323-2.1316-0.23928 0.64704-1.4122 1.4441-0.62323 2.1316zm2.6837 1.4844c2.3176 1.8868-0.74397-3.0537 0-4e-5zm0.87358-4.175c4.0643 0.40262-0.61161-2.1575 0 0zm0.50995 2.775c4.2734 0.4166-2.4923-2.6377 0 0z"/><path d="m209.91 325.14c3.8827-4.5892 8.4833-9.1932 14.26-11.331 6.2843-2.4053 9.5402 5.6392 3.3979 8.2997-4.7655 2.499-9.56 5.3491-14.883 6.4018-1.6779-0.0734-3.8309-1.3769-2.7748-3.3704zm13.613-7.6018c1.5304 3.4589 5.0674 1.6678 2.3455-1.1402-0.98424-0.55699-3.6464-0.73481-2.3455 1.1402zm2.7336-2.0686c2.8295-1.1381-1.505-1.5554 0 0zm1.8606 1.26c3.33-1.1737-1.9536-1.1171 0 0zm0.35011 2.4588c3.3071-1.0145-1.6253-1.5725 0 0z"/><path d="m228.33 322.47c2.5864-3.9295 5.3321-5.9996 10.271-4.5385 5.8157-1.0861 0.72074 4.1153-1.5041 5.0255-3.0859-0.105-6.1738-0.12786-9.2612-0.10406l0.25705-0.19923z"/><path d="m208.79 332.82c-0.50782-5.5572 5.9115-3.2958 8.2953-4.3634-2.215 3.9108 0.6 9.6595 1.7257 12.104-2.716-1.2774-6.9341-1.312-8.7173-0.60325-1.1956-2.2054-1.6645-4.6482-1.3037-7.1374z"/><path d="m175.4 337.46c4.8969-3.3481 10.776-5.0392 16.268-7.2112 5.6482-1.6252 11.554-2.2532 17.145-4.1244 1.8836 3.6796-2.9168 8.1705-0.12523 12.37 1.1088 3.8178-7.5759-0.43661-10.431 0.7728-7.6838-0.64363-15.394-0.20444-23.085-0.42818-0.71591-0.1149-0.29132-1.3362 0.22806-1.3787z"/></g></g><path d="m83.918 28.979c1.8483-5.2403 8.9451-7.1215 14.085-7.0898 3.4975-0.0046 6.8712-0.47856 6.4662 3.8086 3.4085 6.34 9.7829 0.18086 13.449-2.3812 4.3554-0.73541 8.4507 0.45421 6.6363 5.6342-0.12031 4.2396 3.7359 10.502-3.4269 9.0595-4.1141 1.1861-6.2463-3.6955-9.7909-4.8084-4.1598-2.2024-7.9463 3.6148-6.6896 6.606-5.7966 0.35318-12.499 2.7149-17.656-0.9304-2.3397-2.6985-3.5814-6.3436-3.0724-9.8984z" fill="#e9c6af" stroke-width=".13128"/><path d="m125.29 25.849c0.38163-8.5023 11.391-3.3256 10.423 3.0792-1.1757 5.0246-6.8339-0.78016-2.2181-2.7348-4.0915 0.0015-0.99758 6.1597-1.9321 8.8533 1.0451 2.522 4.46 1.4924 0.71614 0.04308-1.6611-5.9991 6.0757-1.3704 3.5237 2.2109-3.2108 6.7837-11.912 0.85753-10.254-5.4408-0.15349-1.9989-0.29656-4.0048-0.25863-6.0108z" fill="#e9c6af" stroke-width=".13128"/><path d="m140.94 15.819c1.7038-3.0366 3.5897 4.4327 0.22573 0.51286l-0.26176-0.2363 0.0363-0.27658z" fill="#d38d5f" stroke-width=".03282"/><path d="m144.91 44.009c2.5958-3.1001 0.76257 5.224 3e-5 -2e-5z" fill="#d38d5f" stroke-width=".03282"/><g transform="translate(-133.18,-301.57)" fill="#06f" stroke="#06f"><path d="m156.73 344.3c7.7175 2.7024 14.21 8.7273 22.706 9.0296 2.8947 0.36061 12.666 1.7901 4.6859 1.4652-6.983-0.95381-14.21-1.8354-20.108-6.0941-1.1055-1.4684-9.6438-3.2808-7.2836-4.4008z"/><path d="m162.2 333.41c6.5308 1.5098 12.299-2.8318 18.446-4.2314 3.0874-0.81874 10.248-4.7696 10.312-4.3134-7.5326 4.126-15.83 6.4935-23.912 9.2707-0.65084 0.3142-7.7791 0.4754-4.8468-0.72584z"/>
/
&gt;<path d="m143.79 336.97c4.9609-3.0446 10.858-1.7636 16.354-2.016-3.7558 1.6744-8.515-0.11843-12.6 0.83555-0.6992-0.10843-6.2908 2.9786-3.7536 1.1804z"/>
/
&gt;<path d="m135.1 338.89c6.655 1.717 13.645 2.1748 20.529 2.017 5.2622-0.0593 10.783-0.59728 15.344 2.5958-3.7127 0.31773-8.1615-3.3951-12.661-1.9725-7.8123 0.20717-15.661-0.0976-23.311-1.7352-1.7441-0.124-0.22835-0.57126 0.0991-0.90508z"/>
/
&gt;<path d="m161.64 327.85c6.217-1.5345 11.699-5.3831 18.125-6.3086 5.5-2.7057 11.918-1.035 17.497-3.1718-0.61688 0.33822 2.585-1.4953 2.2841-1.1537-1.5156 1.5781-6.68 3.1631-11.261 3.1657-5.3532-0.049-10.409 2.0668-15.469 3.5296-3.2696 0.96508-10.682 5.0936-11.251 3.9959l0.0751-0.0568z"/><path d="m180.58 342.53c6.8616 0.1676 13.767-0.30769 20.602 0.23355 3.3485-0.95611 7.1829 6.2786 3.0712 2.1009-5.532-2.9991-12.043-1.2312-18.038-1.71-0.59644-0.37087-8.6391 0.74872-5.6352-0.62444z"/><path d="m188.22 348.55c7.6462 0.75053 14.666 4.4143 22.285 5.2873-4.196 1.5049-9.0763-1.9024-13.413-2.4896-1.5076-1.2906-10.686-1.6232-8.872-2.7977z"/></g></g></svg>
